<svg width="152" height="138" viewBox="0 0 152 138" fill="none" xmlns="http://www.w3.org/2000/svg">
<path d="M109.436 109.456C90.8168 92.2412 72.3729 74.9391 53.2263 58.1639C53.1385 58.4273 53.1385 58.603 53.1385 58.7787C53.1385 59.4813 53.1385 60.2717 53.1385 60.9744C53.1385 77.8374 53.1385 94.7004 53.1385 111.476C53.1385 111.915 53.0507 112.354 53.0507 112.881C52.6115 112.705 52.348 112.617 51.9967 112.442C46.0244 109.28 39.9643 106.03 33.9919 102.868C33.8163 102.781 33.7285 102.693 33.6406 102.605C33.6406 77.3104 33.6406 52.1037 33.6406 26.8092C36.2755 25.4039 38.8225 24.0865 41.5452 22.6812C60.4282 40.1591 79.1357 57.7247 98.4579 74.5877C98.5457 74.5877 98.5457 74.4999 98.5457 74.4999C98.5457 74.4999 98.5457 74.4999 98.6335 74.4121C98.6335 74.3243 98.6335 74.3242 98.6335 74.2364C98.6335 74.1486 98.6335 74.1486 98.6335 74.0608C98.6335 56.3195 98.6335 38.666 98.6335 20.9247C98.6335 20.9247 98.6335 20.8369 98.7214 20.749C105.221 24.0865 111.72 27.5118 118.219 30.9371C118.219 31.3762 118.219 31.7276 118.219 32.0789C118.219 55.7925 118.219 79.5061 118.219 103.22C118.219 105.152 118.307 104.801 116.814 105.591C114.706 106.733 112.598 107.875 110.403 108.929C110.051 109.192 109.788 109.28 109.436 109.456Z" fill="#16397A"/>
<path d="M57.6153 118.942C57.791 116.57 57.7032 114.462 57.7032 112.267C57.7032 110.071 57.7032 107.963 57.7032 105.767C57.7032 103.659 57.7032 101.552 57.7032 99.3559C57.7032 97.1602 57.7032 95.0523 57.7032 92.8566C57.7032 90.6609 57.7032 88.553 57.7032 86.3573C57.7032 84.1616 57.7032 82.0537 57.7032 79.858C57.7032 77.7501 57.7032 75.6422 57.7032 73.4465C57.7032 71.3387 57.7032 69.1429 57.7032 66.7716C58.4058 67.4742 59.0206 67.9134 59.6354 68.4403C62.9729 71.5143 66.2225 74.5005 69.56 77.5745C69.9991 78.0136 70.1748 78.4527 70.1748 79.0675C70.1748 98.3019 70.1748 117.536 70.1748 136.683C70.1748 136.946 70.1748 137.21 70.0869 137.561C69.7356 137.385 69.4721 137.298 69.2087 137.21C62.4459 133.697 55.7709 130.096 48.9203 126.583C39.3471 121.664 29.8616 116.746 20.2883 111.827C19.8492 111.564 19.41 111.388 18.9709 111.213C16.3361 110.159 15.0186 108.051 14.6673 105.328C14.4917 104.362 14.4917 103.396 14.4917 102.518C14.4917 90.0461 14.4917 77.6623 14.4917 65.1907C14.4917 62.2045 14.4917 59.2184 14.4917 56.2322C14.4917 55.7052 14.5795 55.2661 14.5795 54.7391C14.7551 52.2799 14.316 49.9964 12.6473 48.0642C11.4177 46.6589 9.92459 45.6928 8.16803 45.078C5.70884 44.1119 3.07399 43.9362 0.439141 44.4632C0.351313 44.4632 0.175656 44.4632 0 44.3754C9.13414 39.5448 18.3561 34.7143 27.6659 29.7959C27.6659 30.3229 27.6659 30.6742 27.6659 31.0255C27.5781 34.0995 27.4902 37.2613 27.4902 40.3353C27.4024 49.7329 27.3146 59.0427 27.3146 68.4403C27.3146 73.9735 27.2268 79.4189 27.2268 84.952C27.2268 88.1138 27.3146 91.2757 27.4024 94.4375C27.4902 97.248 28.0172 99.9707 29.4225 102.518C30.2129 103.835 31.179 104.889 32.5843 105.592C40.4888 109.72 48.2177 113.848 56.1223 117.975C56.6492 118.502 57.0884 118.678 57.6153 118.942Z" fill="#3659D1"/>
<path d="M81.5098 138C81.5098 121.576 81.5098 105.328 81.5098 88.9036C81.7733 89.0793 81.9489 89.1671 82.1246 89.3428C85.9012 92.7681 89.59 96.1934 93.3666 99.6187C93.8057 100.058 93.8935 100.497 93.8935 101.024C93.8935 106.557 93.8935 112.09 93.8935 117.536C93.8935 117.887 93.8935 118.326 93.8935 118.941C94.3327 118.765 94.5962 118.677 94.8597 118.59C98.9876 116.394 103.116 114.198 107.243 112.002C111.196 109.895 115.148 107.787 119.1 105.767C120.154 105.24 121.032 104.449 121.647 103.395C123.053 101.2 123.755 98.7404 123.931 96.1934C124.019 93.7342 124.106 91.1872 124.106 88.728C124.194 75.4659 124.194 62.2917 124.194 49.0296C124.194 44.4626 124.106 39.8955 124.106 35.3284C124.106 35.0649 124.106 34.7136 124.106 34.4501C124.194 34.3623 124.194 34.3623 124.194 34.3623H124.282C133.241 39.105 142.287 43.7599 151.245 48.6783C150.982 48.6783 150.718 48.5905 150.455 48.5905C147.205 48.1513 144.043 48.6783 141.233 50.4349C138.51 52.1914 137.105 54.6506 137.105 57.9881C137.105 73.2702 137.105 88.5523 137.105 103.922C137.105 105.679 136.754 107.26 135.875 108.753C135.261 109.895 134.295 110.685 133.153 111.3C126.917 114.462 120.681 117.448 114.533 120.697C104.696 125.792 94.9475 130.973 85.1986 136.067C83.969 136.682 82.8272 137.297 81.5098 138Z" fill="#3659D1"/>
<path d="M2.54492 36.9098C4.12583 36.1194 5.61891 35.3289 7.19982 34.5385C14.4896 30.7618 21.8671 26.9852 29.1569 23.2086C41.8041 16.6215 54.4514 10.0344 67.0108 3.53509C69.2066 2.39332 71.3144 1.33938 73.5101 0.197614C74.0371 -0.0658712 74.4762 -0.0658712 75.0032 0.197614C81.9417 3.8864 88.9679 7.66301 95.9063 11.3518C106.797 17.2363 117.688 23.033 128.578 28.9174C133.936 31.728 139.206 34.6263 144.475 37.5246C144.3 37.4368 144.124 37.4368 143.948 37.349C134.375 33.221 124.802 29.0931 115.229 24.9652C105.743 20.8372 96.3455 16.7972 86.86 12.7571C82.2051 10.737 77.4624 8.71695 72.8075 6.6969C72.1049 6.43342 71.5779 6.43342 70.8753 6.6969C58.5793 12.2301 46.1956 17.6754 33.8996 23.1208C23.6237 27.6879 13.3478 32.2549 3.07189 36.822C2.89623 36.9098 2.80841 36.9098 2.63275 36.9976L2.54492 36.9098Z" fill="#3659D1"/>
<path d="M87.4824 30.762C87.4824 28.5663 87.4824 26.5463 87.4824 24.3506C89.5903 24.3506 91.6982 24.3506 93.9817 24.3506C93.9817 26.4585 93.9817 28.5663 93.9817 30.762C91.786 30.762 89.6781 30.762 87.4824 30.762Z" fill="#16397A"/>
<path d="M84.14 30.762C81.9443 30.762 79.9242 30.762 77.7285 30.762C77.7285 28.6542 77.7285 26.5463 77.7285 24.3506C79.8364 24.3506 81.9443 24.3506 84.14 24.3506C84.14 26.5463 84.14 28.5663 84.14 30.762Z" fill="#16397A"/>
<path d="M87.4824 40.0716C87.4824 37.8759 87.4824 35.8559 87.4824 33.6602C89.5903 33.6602 91.6982 33.6602 93.9817 33.6602C93.9817 35.768 93.9817 37.8759 93.9817 40.0716C91.786 40.0716 89.6781 40.0716 87.4824 40.0716Z" fill="#16397A"/>
<path d="M84.14 40.1595C81.9443 40.1595 79.9242 40.1595 77.7285 40.1595C77.7285 38.0516 77.7285 35.9438 77.7285 33.748C79.8364 33.748 81.9443 33.748 84.14 33.748C84.14 35.8559 84.14 37.876 84.14 40.1595Z" fill="#16397A"/>
</svg>
